<svg width="392" height="128" viewBox="0 0 392 128" fill="none" xmlns="http://www.w3.org/2000/svg">
<path d="M156.93 42.51C162.49 42.51 166.57 43.75 169.17 46.23C171.81 48.67 173.13 51.89 173.13 55.89C173.13 58.45 172.55 60.77 171.39 62.85C170.27 64.89 168.57 66.53 166.29 67.77C164.01 68.97 161.21 69.57 157.89 69.57H147.69V84.75H139.53V42.51H156.93ZM157.05 62.97C159.57 62.97 161.51 62.35 162.87 61.11C164.27 59.87 164.97 58.23 164.97 56.19C164.97 53.95 164.29 52.27 162.93 51.15C161.61 49.99 159.65 49.41 157.05 49.41H147.69V62.97H157.05ZM196.093 52.71C199.693 52.71 202.493 53.81 204.493 56.01C206.493 58.21 207.493 61.51 207.493 65.91V84.75H199.813V68.31C199.813 64.91 199.313 62.55 198.313 61.23C197.353 59.87 195.853 59.19 193.813 59.19C192.373 59.19 191.013 59.71 189.733 60.75C188.453 61.75 187.413 63.19 186.613 65.07C185.813 66.91 185.413 68.99 185.413 71.31V84.75H177.733V41.55H185.413V55.29C185.413 56.05 185.333 56.71 185.173 57.27C185.053 57.83 184.853 58.45 184.573 59.13L184.333 59.73C184.173 60.01 184.153 60.25 184.273 60.45C184.433 60.61 184.633 60.69 184.873 60.69C185.153 60.65 185.353 60.49 185.473 60.21C186.473 58.01 187.913 56.21 189.793 54.81C191.673 53.41 193.773 52.71 196.093 52.71ZM226.985 52.71C230.225 52.71 233.025 53.45 235.385 54.93C237.785 56.37 239.625 58.35 240.905 60.87C242.185 63.35 242.825 66.09 242.825 69.09C242.825 72.13 242.185 74.91 240.905 77.43C239.625 79.91 237.785 81.89 235.385 83.37C233.025 84.81 230.225 85.53 226.985 85.53C223.785 85.53 220.985 84.81 218.585 83.37C216.185 81.89 214.345 79.91 213.065 77.43C211.785 74.91 211.145 72.13 211.145 69.09C211.145 66.09 211.785 63.35 213.065 60.87C214.345 58.35 216.185 56.37 218.585 54.93C220.985 53.45 223.785 52.71 226.985 52.71ZM226.985 78.87C229.545 78.87 231.545 77.95 232.985 76.11C234.425 74.23 235.145 71.89 235.145 69.09C235.145 66.29 234.425 63.97 232.985 62.13C231.545 60.25 229.545 59.31 226.985 59.31C224.465 59.31 222.465 60.25 220.985 62.13C219.545 63.97 218.825 66.29 218.825 69.09C218.825 71.89 219.545 74.23 220.985 76.11C222.465 77.95 224.465 78.87 226.985 78.87ZM242.939 53.43H265.019V59.67H242.939V53.43ZM256.379 74.79C256.379 75.95 256.459 76.77 256.619 77.25C256.779 77.73 257.079 78.07 257.519 78.27C257.959 78.43 258.699 78.51 259.739 78.51H265.019V84.75H257.879C255.679 84.75 253.919 84.47 252.599 83.91C251.279 83.35 250.299 82.39 249.659 81.03C249.019 79.67 248.699 77.77 248.699 75.33V44.79H256.379V74.79ZM282.884 52.71C286.124 52.71 288.924 53.45 291.284 54.93C293.684 56.37 295.524 58.35 296.804 60.87C298.084 63.35 298.724 66.09 298.724 69.09C298.724 72.13 298.084 74.91 296.804 77.43C295.524 79.91 293.684 81.89 291.284 83.37C288.924 84.81 286.124 85.53 282.884 85.53C279.684 85.53 276.884 84.81 274.484 83.37C272.084 81.89 270.244 79.91 268.964 77.43C267.684 74.91 267.044 72.13 267.044 69.09C267.044 66.09 267.684 63.35 268.964 60.87C270.244 58.35 272.084 56.37 274.484 54.93C276.884 53.45 279.684 52.71 282.884 52.71ZM282.884 78.87C285.444 78.87 287.444 77.95 288.884 76.11C290.324 74.23 291.044 71.89 291.044 69.09C291.044 66.29 290.324 63.97 288.884 62.13C287.444 60.25 285.444 59.31 282.884 59.31C280.364 59.31 278.364 60.25 276.884 62.13C275.444 63.97 274.724 66.29 274.724 69.09C274.724 71.89 275.444 74.23 276.884 76.11C278.364 77.95 280.364 78.87 282.884 78.87ZM320.781 52.71C324.381 52.71 327.181 53.81 329.181 56.01C331.181 58.21 332.181 61.51 332.181 65.91V84.75H324.501V68.31C324.501 64.91 324.001 62.55 323.001 61.23C322.041 59.87 320.541 59.19 318.501 59.19C317.061 59.19 315.701 59.71 314.421 60.75C313.141 61.75 312.101 63.19 311.301 65.07C310.501 66.91 310.101 68.99 310.101 71.31V84.75H302.421V53.43H310.101V55.29C310.101 56.05 310.021 56.71 309.861 57.27C309.741 57.83 309.541 58.45 309.261 59.13L309.021 59.73C308.861 60.01 308.841 60.25 308.961 60.45C309.121 60.61 309.321 60.69 309.561 60.69C309.841 60.65 310.041 60.49 310.161 60.21C311.161 58.01 312.601 56.21 314.481 54.81C316.361 53.41 318.461 52.71 320.781 52.71Z" fill="white"/>
<path d="M112.44 68.448H119.208C120.432 68.448 121.296 69.6 121.008 70.68L115.824 91.272C115.68 92.064 114.96 92.64 114.096 92.64H107.256C106.176 92.64 105.312 91.488 105.528 90.408L110.712 69.816C110.928 69.024 111.576 68.448 112.44 68.448ZM98.76 36.48H105.528C106.752 36.48 107.616 37.632 107.256 38.712L102.216 59.304C101.928 60.096 101.208 60.672 100.344 60.672H93.648C92.424 60.672 91.56 59.52 91.92 58.44L97.032 37.848C97.176 37.056 97.968 36.48 98.76 36.48ZM71.688 51.312H78.456C79.608 51.312 80.472 52.464 80.184 53.616L75.072 74.136C74.856 74.928 74.136 75.504 73.344 75.504H66.504C65.352 75.504 64.416 74.424 64.776 73.272L69.888 52.752C70.104 51.888 70.824 51.312 71.688 51.312Z" fill="white"/>
</svg>
